<svg version="1.1" id="Layer_1" xmlns="http://www.w3.org/2000/svg" xmlns:xlink="http://www.w3.org/1999/xlink" x="0px" y="0px"
	 viewBox="0 0 200 200" style="enable-background:new 0 0 200 200;" xml:space="preserve">

	<path d="M147.3,27.3L100,0L13.4,50v100l47.9,27.6L100,200l86.6-50V50L147.3,27.3z M163.2,136.5L100,173v-48.7l-10-1.9
		l-25.4,6.7v0l-27.8,7.4L57,116.1v0l18.5-18.6l3.3-9.6L36.8,63.5L100,27l63.2,36.5V136.5z"/>
	<path d="M113.7-77"/>
	<path d="M100,27"/>
	<path d="M100,27L36.8,63.5l42.1,24.3l-3.3,9.6L57,116.1v0l-20.3,20.4l27.8-7.4v0l25.4-6.7l10,1.9V173l63.2-36.5v-73
		L100,27z M140.8,84.7c-3,0-5.7-1.7-7.1-4.1c-0.7-1.2-1.1-2.6-1.1-4.1c0-4.5,3.7-8.2,8.2-8.2c3,0,5.7,1.7,7.1,4.1
		c0.7,1.2,1.1,2.6,1.1,4.1C149,81,145.4,84.7,140.8,84.7z"/>
	<path d="M150.9,76.4c0,5.6-4.5,10.1-10.1,10.1c-3.7,0-7-2-8.8-5.1c-0.9-1.5-1.4-3.2-1.4-5.1c0-5.6,4.5-10.1,10.1-10.1
		c3.7,0,7,2,8.8,5.1C150.4,72.9,150.9,74.6,150.9,76.4z"/>
</svg>
