<svg width="34" height="30" viewBox="0 0 34 30" fill="none" xmlns="http://www.w3.org/2000/svg">
<path d="M31.9158 18.8614L25.7018 15.2893C24.0113 14.311 22.9605 12.5136 22.9605 10.5797V3.45844C22.9605 1.95657 21.9324 0.705376 20.4473 0.386813C19.3737 0.159188 18.2774 0.0225 17.158 0H16.3354C15.2388 0.0226875 14.1195 0.159375 13.0457 0.386813C11.5608 0.705376 10.5327 1.95675 10.5327 3.45826V10.5795C10.5327 12.5136 9.48191 14.3336 7.79123 15.2893L1.57744 18.8612C0.321058 19.5895 -0.295652 21.1138 0.138267 22.4788C0.477472 23.5401 0.913328 24.5682 1.4404 25.5505L1.8745 26.3012C2.47227 27.2606 3.15252 28.1665 3.90761 29.0087C4.50155 29.6457 5.34698 29.9871 6.19223 29.9871C6.74041 29.9871 7.28879 29.8506 7.76845 29.5774L13.9822 26.0055C14.8111 25.525 15.7531 25.2718 16.7122 25.2718C17.6714 25.2718 18.6133 25.525 19.4423 26.0055L25.6562 29.5774C26.9126 30.3055 28.5576 30.078 29.5169 29.0087C30.2708 28.1895 30.979 27.2796 31.55 26.3012L31.9843 25.5505C32.5114 24.5682 32.9472 23.5401 33.2864 22.4788C33.7891 21.1138 33.1722 19.5895 31.9158 18.8614Z" fill="black"/>
</svg>
