<svg width="37" height="30" viewBox="0 0 37 30" fill="none" xmlns="http://www.w3.org/2000/svg">
<path d="M24.6706 0.0149564V0.00830078H26.4011L27.0333 0.134757C27.4549 0.216853 27.8376 0.324441 28.1814 0.457552C28.5253 0.590664 28.8581 0.745971 29.1798 0.923442C29.5015 1.10091 29.7932 1.28175 30.055 1.46587C30.3146 1.6478 30.5475 1.84081 30.7538 2.04491C30.9579 2.25123 31.2763 2.30447 31.7089 2.20464C32.1415 2.10481 32.6074 1.96614 33.1066 1.78867C33.6057 1.6112 34.0994 1.41153 34.5874 1.18967C35.0755 0.967802 35.3728 0.826936 35.4793 0.767036C35.5836 0.70494 35.639 0.671662 35.6457 0.667203L35.6523 0.657219L35.6856 0.64058L35.7189 0.623941L35.7522 0.607302L35.7854 0.590664L35.7921 0.58068L35.8021 0.574025L35.8121 0.567369L35.8187 0.557386L35.852 0.547402L35.8853 0.540747L35.8786 0.590664L35.8686 0.64058L35.852 0.690497L35.8353 0.740414L35.8187 0.773692L35.8021 0.80697L35.7854 0.856887C35.7743 0.890164 35.7633 0.934524 35.7522 0.989998C35.7411 1.04547 35.6357 1.2673 35.436 1.65556C35.2363 2.04381 34.9868 2.43759 34.6873 2.83692C34.3878 3.23625 34.1193 3.53795 33.882 3.74208C33.6424 3.9484 33.4837 4.09259 33.4061 4.17469C33.3284 4.25898 33.2341 4.33662 33.1232 4.40764L32.9568 4.51745L32.9235 4.53409L32.8903 4.55073L32.8836 4.56071L32.8736 4.56737L32.8636 4.57402L32.857 4.58401L32.8237 4.60065L32.7904 4.61729L32.7838 4.62727L32.7738 4.63392L32.7638 4.64058L32.7571 4.65056L32.7505 4.66055L32.7405 4.6672L32.7305 4.67386L32.7239 4.68384H32.8903L33.822 4.48417C34.4432 4.35106 35.0367 4.19023 35.6024 4.00165L36.5009 3.70214L36.6007 3.66887L36.6507 3.65223L36.6839 3.63559L36.7172 3.61895L36.7505 3.60231L36.7838 3.58567L36.8503 3.57569L36.9169 3.56903V3.63559L36.9002 3.64224L36.8836 3.65223L36.877 3.66221L36.867 3.66887L36.857 3.67552L36.8503 3.68551L36.8437 3.69549L36.8337 3.70214L36.8237 3.7088L36.817 3.71878L36.8104 3.72877L36.8004 3.73542L36.7838 3.7687L36.7671 3.80198L36.7571 3.80863C36.7527 3.81529 36.6119 4.00384 36.3345 4.37436C36.0572 4.74707 35.9075 4.93562 35.8853 4.94008C35.8631 4.94674 35.832 4.98001 35.7921 5.03992C35.7544 5.10201 35.5192 5.3494 35.0866 5.78201C34.654 6.21462 34.2303 6.59952 33.8154 6.93675C33.3983 7.27619 33.1876 7.69326 33.1831 8.188C33.1765 8.68051 33.151 9.23739 33.1066 9.85855C33.0622 10.4797 32.979 11.1508 32.857 11.8719C32.735 12.5929 32.5464 13.4082 32.2913 14.3178C32.0361 15.2274 31.7255 16.1148 31.3595 16.98C30.9934 17.8452 30.6107 18.6217 30.2114 19.3095C29.812 19.9972 29.446 20.5796 29.1132 21.0566C28.7804 21.5335 28.4421 21.9828 28.0982 22.4043C27.7544 22.8258 27.3196 23.3006 26.7938 23.8286C26.2658 24.3544 25.9774 24.6428 25.9286 24.6938C25.8775 24.7426 25.6601 24.9246 25.2763 25.2396C24.8947 25.5568 24.4843 25.8741 24.045 26.1913C23.608 26.5064 23.2064 26.7693 22.8403 26.98C22.4743 27.1908 22.0328 27.4315 21.5159 27.7021C21.0012 27.975 20.4443 28.2279 19.8453 28.4609C19.2463 28.6938 18.614 28.9101 17.9485 29.1098C17.2829 29.3095 16.6396 29.4648 16.0184 29.5757C15.3972 29.6866 14.6928 29.7809 13.9052 29.8586L12.7239 29.975V29.9917H10.5608V29.975L10.2779 29.9584C10.0894 29.9473 9.93408 29.9362 9.81205 29.9251C9.69005 29.914 9.22969 29.853 8.43102 29.7421C7.63235 29.6312 7.00563 29.5202 6.55082 29.4093C6.09604 29.2984 5.41937 29.0876 4.52087 28.777C3.62237 28.4664 2.85365 28.1525 2.21471 27.8353C1.57801 27.5202 1.17867 27.3205 1.01671 27.2363C0.856977 27.1542 0.677276 27.0521 0.477609 26.9301L0.178108 26.7471L0.171486 26.7371L0.161469 26.7304L0.151486 26.7238L0.14483 26.7138L0.111552 26.6972L0.0782745 26.6805L0.0716522 26.6705L0.0616356 26.6639L0.0516522 26.6572L0.0449966 26.6472L0.0383743 26.6373L0.0283577 26.6306H0.0117188V26.564L0.0449966 26.5707L0.0782745 26.5807L0.228025 26.5973C0.327859 26.6084 0.599639 26.625 1.04333 26.6472C1.48706 26.6694 1.95847 26.6694 2.45764 26.6472C2.95681 26.625 3.46709 26.5751 3.98842 26.4975C4.50979 26.4199 5.12543 26.2867 5.83535 26.0982C6.5453 25.9096 7.19754 25.6855 7.79212 25.4259C8.38446 25.1642 8.80596 24.9689 9.05668 24.8403C9.30513 24.7138 9.6845 24.4786 10.1947 24.1348L10.9601 23.619L10.9668 23.609L10.9768 23.6023L10.9868 23.5957L10.9934 23.5857L11.0001 23.5757L11.0101 23.569L11.0201 23.5624L11.0267 23.5524L11.06 23.5424L11.0932 23.5358L11.0999 23.5025L11.1099 23.4692L11.1199 23.4625L11.1265 23.4526L10.8603 23.4359C10.6828 23.4248 10.5109 23.4137 10.3445 23.4026C10.1781 23.3916 9.91744 23.3416 9.56247 23.2529C9.20753 23.1641 8.82483 23.031 8.41438 22.8536C8.00396 22.6761 7.60463 22.4653 7.21638 22.2213C6.82816 21.9773 6.54749 21.7742 6.37445 21.6123C6.20363 21.4525 5.98177 21.2263 5.70889 20.9334C5.43824 20.6384 5.20307 20.3355 5.0034 20.0249C4.80373 19.7144 4.61295 19.356 4.43105 18.9501L4.15481 18.3444L4.13817 18.2945L4.12154 18.2446L4.11155 18.2113L4.1049 18.178L4.15481 18.1847L4.20473 18.1947L4.57079 18.2446C4.81485 18.2779 5.19754 18.2889 5.71887 18.2779C6.24024 18.2668 6.60074 18.2446 6.8004 18.2113C7.00007 18.178 7.1221 18.1558 7.16646 18.1447L7.23302 18.1281L7.31621 18.1115L7.39941 18.0948L7.40606 18.0848L7.41604 18.0782L7.42606 18.0715L7.43268 18.0615L7.36613 18.0449L7.29957 18.0283L7.23302 18.0116L7.16646 17.995L7.09991 17.9784C7.05555 17.9673 6.97791 17.9451 6.86696 17.9118C6.75604 17.8785 6.45654 17.7565 5.96846 17.5457C5.4804 17.335 5.09215 17.1298 4.80373 16.9301C4.5146 16.7299 4.23891 16.5109 3.97844 16.2745C3.71887 16.0349 3.43382 15.7265 3.1232 15.3494C2.81262 14.9723 2.53531 14.5341 2.29125 14.0349C2.04723 13.5358 1.8642 13.0588 1.74217 12.604C1.62063 12.1518 1.54044 11.6896 1.5026 11.2229L1.44267 10.5241L1.47594 10.5308L1.50922 10.5407L1.5425 10.5574L1.57578 10.574L1.60906 10.5907L1.64233 10.6073L2.15814 10.8402C2.50203 10.9956 2.92909 11.1287 3.43934 11.2396C3.94962 11.3505 4.25465 11.4115 4.35448 11.4226L4.50423 11.4392H4.80373L4.79711 11.4293L4.78709 11.4226L4.77711 11.416L4.77045 11.406L4.76383 11.396L4.75382 11.3893L4.74383 11.3827L4.73718 11.3727L4.7039 11.3561L4.67062 11.3394L4.664 11.3294L4.65398 11.3228L4.644 11.3161L4.63734 11.3061L4.60406 11.2895L4.57079 11.2729L4.56416 11.2629C4.55751 11.2584 4.4621 11.1874 4.27794 11.0499C4.09601 10.9101 3.90523 10.7293 3.70556 10.5075C3.5059 10.2856 3.30623 10.0527 3.10656 9.80863C2.90653 9.56405 2.72836 9.30237 2.57411 9.0266C2.41884 8.7493 2.25465 8.39652 2.0816 7.96837C1.91079 7.54241 1.781 7.11313 1.69225 6.68051C1.60353 6.2479 1.55362 5.82085 1.5425 5.39932C1.53142 4.97779 1.5425 4.61729 1.57578 4.31779C1.60906 4.01828 1.67561 3.67995 1.77545 3.30281C1.87528 2.92567 2.01951 2.52634 2.20806 2.10481L2.49092 1.47253L2.50756 1.42261L2.5242 1.37269L2.53421 1.36604L2.54084 1.35605L2.54749 1.34607L2.55748 1.33942L2.56749 1.34607L2.57411 1.35605L2.58077 1.36604L2.59075 1.37269L2.60077 1.37935L2.60739 1.38933L2.61405 1.39932L2.62403 1.40597L2.64067 1.43925L2.65731 1.47253L2.66733 1.47918L2.67395 1.48917L3.1232 1.98833C3.4227 2.32111 3.77768 2.69273 4.18809 3.10314C4.59854 3.51356 4.82593 3.72654 4.87029 3.74208C4.91468 3.75982 4.97012 3.81083 5.03668 3.89516C5.10323 3.97725 5.3251 4.17359 5.70223 4.48417C6.07941 4.79476 6.57302 5.15529 7.1831 5.56571C7.79322 5.97612 8.46986 6.38101 9.21305 6.78035C9.95628 7.17968 10.7549 7.54018 11.6091 7.86188C12.4632 8.18358 13.0622 8.39432 13.4061 8.49416C13.75 8.59399 14.3378 8.72155 15.1698 8.87685C16.0017 9.03216 16.6285 9.132 17.05 9.17635C17.4715 9.22071 17.7599 9.24624 17.9152 9.25289L18.1482 9.25955L18.1415 9.20963L18.1315 9.15972L18.065 8.74374C18.0206 8.46644 17.9984 8.07819 17.9984 7.57902C17.9984 7.07985 18.0372 6.61952 18.1149 6.19799C18.1926 5.77645 18.309 5.3494 18.4643 4.91679C18.6196 4.48417 18.7716 4.13695 18.9202 3.87519C19.0711 3.61562 19.2685 3.31945 19.5126 2.98667C19.7566 2.65389 20.0728 2.31003 20.461 1.95506C20.8492 1.60008 21.2929 1.28394 21.7921 1.00664C22.2913 0.729332 22.7516 0.51855 23.1731 0.374357C23.5946 0.230164 23.9496 0.135855 24.238 0.0914955C24.5264 0.0471361 24.6706 0.0216119 24.6706 0.0149564Z" fill="black" stroke="black" stroke-width="1.12646"/>
</svg>
