<svg  viewBox="0 0 42 30" fill="none" xmlns="http://www.w3.org/2000/svg">
<path d="M18.716 0.00391106C18.0796 0.00495156 17.4418 0.174469 16.8938 0.552794C15.6872 1.38673 15.0159 3.95701 14.2055 5.78649C13.313 7.79914 12.5299 9.82757 11.6602 11.305C9.30784 8.63603 7.70306 2.72077 4.86963 0.552794C3.9557 -0.145712 1.95212 -0.125818 1.04976 0.552794C-1.39108 2.39027 1.05779 5.63886 2.03948 7.34332C4.19426 11.0803 6.58287 15.082 8.40606 18.5195C7.22086 21.6449 1.23538 30.4765 9.25532 29.978C11.1963 28.7236 12.0182 26.1134 13.0739 23.7519C15.2324 18.9197 17.0663 14.7451 19.2987 9.74811C20.2266 7.67095 22.4618 4.60199 21.9871 2.25005C21.7211 0.939109 20.2233 0.00145549 18.716 0.00391106ZM38.12 1.92105C36.9602 1.93266 35.7906 2.4743 35.2846 3.52341C34.4476 4.47838 33.5512 5.37341 32.5962 6.21051C32.1375 6.78874 31.6181 7.30649 31.0407 7.76605C30.3692 8.46456 29.8245 9.28622 28.9181 9.7482V4.23095C28.8974 1.22986 23.2819 1.22986 23.2604 4.23095V19.9346C23.5057 21.0553 24.015 21.9121 25.2399 22.0546H26.9385C28.1029 21.8523 28.7652 21.1476 28.9181 19.9346V16.5387C28.9181 15.3616 28.6977 13.3743 29.4838 14.5579C30.6363 15.6857 32.2604 16.8991 33.7291 18.2347C35.1388 19.5203 36.4878 21.5951 37.9717 21.9129C41.0102 22.5644 42.3505 19.6479 41.2259 17.5285C40.0383 15.288 36.6179 13.8542 35.1429 11.8695C36.1369 9.59479 41.5405 8.19736 41.0842 4.23095C40.9043 2.66421 39.5198 1.90702 38.12 1.92105H38.12Z" fill="black"/>
</svg>
